<?xml version="1.0" standalone="no"?>
<!DOCTYPE svg PUBLIC "-//W3C//DTD SVG 20010904//EN"
 "http://www.w3.org/TR/2001/REC-SVG-20010904/DTD/svg10.dtd">
<svg version="1.0" xmlns="http://www.w3.org/2000/svg"
 width="480.000000pt" height="480.000000pt" viewBox="0 0 480.000000 480.000000"
 preserveAspectRatio="xMidYMid meet">
<metadata>
Created by potrace 1.11, written by Peter Selinger 2001-2013
</metadata>
<g transform="translate(0.000000,480.000000) scale(0.100000,-0.100000)"
fill="#000000" stroke="none">
<path d="M0 2400 l0 -2400 2400 0 2400 0 0 2400 0 2400 -2400 0 -2400 0 0
-2400z m2624 760 c20 -133 13 -120 71 -145 130 -58 227 -140 312 -264 95 -137
125 -238 127 -424 l1 -137 56 -46 57 -46 -40 -71 c-130 -230 -171 -297 -182
-297 -7 0 -41 11 -75 25 l-62 26 -74 -49 c-91 -62 -183 -97 -305 -118 -183
-31 -402 22 -544 131 l-50 38 -73 -31 -74 -30 -13 21 c-40 66 -175 297 -189
324 l-17 31 63 51 64 50 -9 73 c-36 299 151 618 434 739 l57 24 11 70 c6 39
13 76 15 83 3 9 56 12 219 12 l214 0 6 -40z"/>
<path d="M2240 3040 c-6 -38 -16 -70 -22 -70 -5 0 -47 -17 -92 -38 -175 -82
-307 -238 -361 -425 -19 -64 -24 -191 -12 -283 l8 -62 -50 -38 c-28 -22 -49
-44 -48 -50 6 -29 133 -244 144 -244 7 0 40 11 72 24 l59 24 26 -27 c66 -69
229 -142 356 -160 168 -24 377 38 503 149 l43 38 58 -25 c32 -13 64 -22 70
-20 12 5 146 230 146 245 0 4 -25 25 -56 47 -48 35 -54 43 -49 65 14 55 17
225 5 279 -50 228 -194 396 -417 486 l-58 24 -9 65 -8 66 -148 0 -148 0 -12
-70z m200 -330 c5 -93 6 -95 31 -100 l26 -5 -45 -82 c-25 -46 -48 -83 -52 -83
-3 0 -27 37 -53 83 l-47 82 30 3 c29 3 30 5 30 58 0 63 -8 66 -90 35 -152 -58
-252 -197 -252 -353 0 -37 3 -75 6 -85 4 -14 -3 -23 -29 -37 -19 -11 -38 -17
-41 -13 -12 11 -19 153 -11 207 23 154 141 299 287 354 53 20 133 35 175 33
l30 -2 5 -95z m174 44 c71 -33 168 -135 206 -217 41 -86 55 -177 41 -263 -11
-68 -64 -194 -81 -194 -4 0 -40 18 -79 40 -39 22 -74 40 -78 40 -5 0 -14 -9
-21 -20 -7 -12 -17 -18 -22 -15 -14 9 -93 156 -87 162 7 6 177 6 184 0 2 -3 0
-15 -6 -26 -10 -18 -7 -24 31 -47 39 -25 42 -25 54 -9 17 23 28 114 21 186
-11 122 -97 240 -215 295 -60 28 -62 30 -62 68 0 37 1 38 29 33 15 -3 54 -18
85 -33z m-304 -470 c0 -5 -33 -65 -73 -133 l-20 -33 -17 22 -17 22 -41 -21
c-23 -12 -42 -25 -42 -30 0 -18 94 -94 148 -119 49 -23 71 -27 152 -27 84 0
102 3 157 29 34 15 70 37 79 47 22 24 46 24 75 -1 l24 -20 -40 -35 c-88 -79
-192 -110 -332 -102 -76 4 -103 11 -159 37 -74 36 -141 92 -183 155 -46 68
-47 67 40 119 71 42 78 49 69 67 -6 11 -9 23 -6 27 4 8 186 4 186 -4z"/>
</g>
</svg>
